<?xml version="1.0" encoding="UTF-8" standalone="no"?>
<!DOCTYPE svg PUBLIC "-//W3C//DTD SVG 1.1//EN" "http://www.w3.org/Graphics/SVG/1.1/DTD/svg11.dtd">
<svg version="1.1" xmlns="http://www.w3.org/2000/svg" xmlns:xlink="http://www.w3.org/1999/xlink" preserveAspectRatio="xMidYMid meet" viewBox="0 0 640 640" width="640" height="640"><defs><path d="M2.53 320.53C2.53 458.51 93.69 575.51 220.08 616.76C235.99 619.7 241.82 610.04 241.82 601.75C241.82 594.33 241.56 574.69 241.43 548.66C152.92 567.49 134.25 506.77 134.25 506.77C119.78 470.74 98.86 461.1 98.86 461.1C70.04 441.75 101.09 442.14 101.09 442.14C133.03 444.31 149.82 474.31 149.82 474.31C178.19 522.05 224.3 508.26 242.48 500.29C245.35 480.08 253.54 466.34 262.64 458.53C191.98 450.72 117.71 423.87 117.71 304.25C117.71 270.17 130.04 242.32 150.45 220.47C146.87 212.58 136.14 180.84 153.24 137.84C153.24 137.84 179.88 129.47 240.74 169.85C266.19 162.91 293.23 159.47 320.28 159.31C347.32 159.47 374.37 162.91 399.82 169.85C460.27 129.47 486.92 137.84 486.92 137.84C504.02 180.84 493.28 212.58 490.1 220.47C510.38 242.32 522.71 270.17 522.71 304.25C522.71 424.19 448.34 450.59 377.55 458.27C388.68 467.64 399.02 486.78 399.02 516.04C399.02 557.82 398.63 591.4 398.63 601.54C398.63 609.72 404.19 619.49 420.5 616.36C547.8 575.38 638.87 458.29 638.87 320.53C638.87 148.11 496.41 8.31 320.7 8.31C144.91 8.31 2.53 148.11 2.53 320.53Z" id="f3OOsPZyG"></path><linearGradient id="gradientbgQ9vr1Np" gradientUnits="userSpaceOnUse" x1="320.7" y1="8.31" x2="320.7" y2="617.3"><stop style="stop-color: #121214;stop-opacity: 0.34" offset="0%"></stop><stop style="stop-color: #121214;stop-opacity: 0" offset="100%"></stop></linearGradient></defs><g><g><g><use xlink:href="#f3OOsPZyG" opacity="1" fill="url(#gradientbgQ9vr1Np)"></use><g><use xlink:href="#f3OOsPZyG" opacity="1" fill-opacity="0" stroke="#000000" stroke-width="1" stroke-opacity="0"></use></g></g></g></g></svg>